<mxfile host="app.diagrams.net" agent="Mozilla/5.0 (Windows NT 10.0; Win64; x64) AppleWebKit/537.36 (KHTML, like Gecko) Chrome/134.0.0.0 Safari/537.36" version="26.2.9">
  <diagram id="C5RBs43oDa-KdzZeNtuy" name="Page-1">
    <mxGraphModel dx="1043" dy="670" grid="1" gridSize="10" guides="1" tooltips="1" connect="1" arrows="1" fold="1" page="1" pageScale="1" pageWidth="1654" pageHeight="2336" math="0" shadow="0">
      <root>
        <mxCell id="WIyWlLk6GJQsqaUBKTNV-0" />
        <mxCell id="WIyWlLk6GJQsqaUBKTNV-1" parent="WIyWlLk6GJQsqaUBKTNV-0" />
        <mxCell id="IqfXKbRryr13Aj2CBxFD-1" value="Start" style="strokeWidth=2;html=1;shape=mxgraph.flowchart.terminator;whiteSpace=wrap;" parent="WIyWlLk6GJQsqaUBKTNV-1" vertex="1">
          <mxGeometry x="690" y="60" width="100" height="30" as="geometry" />
        </mxCell>
        <mxCell id="IqfXKbRryr13Aj2CBxFD-2" value="" style="endArrow=classic;html=1;rounded=0;exitX=0.5;exitY=1;exitDx=0;exitDy=0;exitPerimeter=0;" parent="WIyWlLk6GJQsqaUBKTNV-1" source="IqfXKbRryr13Aj2CBxFD-1" edge="1">
          <mxGeometry width="50" height="50" relative="1" as="geometry">
            <mxPoint x="690" y="360" as="sourcePoint" />
            <mxPoint x="740" y="120" as="targetPoint" />
          </mxGeometry>
        </mxCell>
        <mxCell id="IqfXKbRryr13Aj2CBxFD-4" style="edgeStyle=orthogonalEdgeStyle;rounded=0;orthogonalLoop=1;jettySize=auto;html=1;" parent="WIyWlLk6GJQsqaUBKTNV-1" source="IqfXKbRryr13Aj2CBxFD-3" target="IqfXKbRryr13Aj2CBxFD-5" edge="1">
          <mxGeometry relative="1" as="geometry">
            <mxPoint x="600" y="240" as="targetPoint" />
          </mxGeometry>
        </mxCell>
        <mxCell id="IqfXKbRryr13Aj2CBxFD-3" value="User input Ingredients" style="rounded=1;whiteSpace=wrap;html=1;" parent="WIyWlLk6GJQsqaUBKTNV-1" vertex="1">
          <mxGeometry x="670" y="120" width="140" height="30" as="geometry" />
        </mxCell>
        <mxCell id="IqfXKbRryr13Aj2CBxFD-6" style="edgeStyle=orthogonalEdgeStyle;rounded=0;orthogonalLoop=1;jettySize=auto;html=1;" parent="WIyWlLk6GJQsqaUBKTNV-1" source="IqfXKbRryr13Aj2CBxFD-5" edge="1">
          <mxGeometry relative="1" as="geometry">
            <mxPoint x="590" y="280" as="targetPoint" />
          </mxGeometry>
        </mxCell>
        <mxCell id="IqfXKbRryr13Aj2CBxFD-5" value="Standerdize Ingredients" style="rounded=1;whiteSpace=wrap;html=1;" parent="WIyWlLk6GJQsqaUBKTNV-1" vertex="1">
          <mxGeometry x="520" y="210" width="140" height="30" as="geometry" />
        </mxCell>
        <mxCell id="IqfXKbRryr13Aj2CBxFD-7" value="Check Recipe Database" style="rhombus;whiteSpace=wrap;html=1;" parent="WIyWlLk6GJQsqaUBKTNV-1" vertex="1">
          <mxGeometry x="510" y="280" width="160" height="150" as="geometry" />
        </mxCell>
        <mxCell id="IqfXKbRryr13Aj2CBxFD-9" value="" style="endArrow=none;html=1;rounded=0;exitX=0.305;exitY=0.797;exitDx=0;exitDy=0;exitPerimeter=0;" parent="WIyWlLk6GJQsqaUBKTNV-1" source="IqfXKbRryr13Aj2CBxFD-7" edge="1">
          <mxGeometry width="50" height="50" relative="1" as="geometry">
            <mxPoint x="610" y="560" as="sourcePoint" />
            <mxPoint x="480" y="400" as="targetPoint" />
          </mxGeometry>
        </mxCell>
        <mxCell id="IqfXKbRryr13Aj2CBxFD-10" value="" style="endArrow=none;html=1;rounded=0;" parent="WIyWlLk6GJQsqaUBKTNV-1" edge="1">
          <mxGeometry width="50" height="50" relative="1" as="geometry">
            <mxPoint x="480" y="400" as="sourcePoint" />
            <mxPoint x="480" y="470" as="targetPoint" />
          </mxGeometry>
        </mxCell>
        <mxCell id="IqfXKbRryr13Aj2CBxFD-11" value="Ingredients Match" style="text;html=1;align=center;verticalAlign=middle;resizable=0;points=[];autosize=1;strokeColor=none;fillColor=none;" parent="WIyWlLk6GJQsqaUBKTNV-1" vertex="1">
          <mxGeometry x="420" y="468" width="120" height="30" as="geometry" />
        </mxCell>
        <mxCell id="IqfXKbRryr13Aj2CBxFD-12" value="" style="endArrow=classic;html=1;rounded=0;exitX=0.51;exitY=1.24;exitDx=0;exitDy=0;exitPerimeter=0;entryX=0.5;entryY=0;entryDx=0;entryDy=0;" parent="WIyWlLk6GJQsqaUBKTNV-1" source="IqfXKbRryr13Aj2CBxFD-11" target="IqfXKbRryr13Aj2CBxFD-13" edge="1">
          <mxGeometry width="50" height="50" relative="1" as="geometry">
            <mxPoint x="610" y="560" as="sourcePoint" />
            <mxPoint x="480" y="680" as="targetPoint" />
          </mxGeometry>
        </mxCell>
        <mxCell id="IqfXKbRryr13Aj2CBxFD-14" style="edgeStyle=orthogonalEdgeStyle;rounded=0;orthogonalLoop=1;jettySize=auto;html=1;" parent="WIyWlLk6GJQsqaUBKTNV-1" edge="1">
          <mxGeometry relative="1" as="geometry">
            <mxPoint x="640" y="1000" as="targetPoint" />
            <mxPoint x="480" y="884.2" as="sourcePoint" />
            <Array as="points">
              <mxPoint x="480" y="924.2" />
              <mxPoint x="641" y="924.2" />
            </Array>
          </mxGeometry>
        </mxCell>
        <mxCell id="IqfXKbRryr13Aj2CBxFD-13" value="Find Compatible Recipes" style="rounded=1;whiteSpace=wrap;html=1;" parent="WIyWlLk6GJQsqaUBKTNV-1" vertex="1">
          <mxGeometry x="400" y="850" width="160" height="30" as="geometry" />
        </mxCell>
        <mxCell id="IqfXKbRryr13Aj2CBxFD-15" value="" style="endArrow=none;html=1;rounded=0;exitX=0.67;exitY=0.803;exitDx=0;exitDy=0;exitPerimeter=0;" parent="WIyWlLk6GJQsqaUBKTNV-1" edge="1">
          <mxGeometry width="50" height="50" relative="1" as="geometry">
            <mxPoint x="620" y="400.45000000000005" as="sourcePoint" />
            <mxPoint x="762.8" y="400" as="targetPoint" />
          </mxGeometry>
        </mxCell>
        <mxCell id="IqfXKbRryr13Aj2CBxFD-20" value="" style="endArrow=none;html=1;rounded=0;" parent="WIyWlLk6GJQsqaUBKTNV-1" source="IqfXKbRryr13Aj2CBxFD-21" edge="1">
          <mxGeometry width="50" height="50" relative="1" as="geometry">
            <mxPoint x="760" y="400" as="sourcePoint" />
            <mxPoint x="760" y="460" as="targetPoint" />
          </mxGeometry>
        </mxCell>
        <mxCell id="IqfXKbRryr13Aj2CBxFD-22" value="" style="endArrow=none;html=1;rounded=0;" parent="WIyWlLk6GJQsqaUBKTNV-1" target="IqfXKbRryr13Aj2CBxFD-21" edge="1">
          <mxGeometry width="50" height="50" relative="1" as="geometry">
            <mxPoint x="760" y="400" as="sourcePoint" />
            <mxPoint x="760" y="460" as="targetPoint" />
          </mxGeometry>
        </mxCell>
        <mxCell id="IqfXKbRryr13Aj2CBxFD-21" value="No matches" style="text;html=1;align=center;verticalAlign=middle;resizable=0;points=[];autosize=1;strokeColor=none;fillColor=none;" parent="WIyWlLk6GJQsqaUBKTNV-1" vertex="1">
          <mxGeometry x="715" y="468" width="90" height="30" as="geometry" />
        </mxCell>
        <mxCell id="IqfXKbRryr13Aj2CBxFD-23" value="" style="endArrow=classic;html=1;rounded=0;exitX=0.504;exitY=1.133;exitDx=0;exitDy=0;exitPerimeter=0;" parent="WIyWlLk6GJQsqaUBKTNV-1" source="IqfXKbRryr13Aj2CBxFD-21" edge="1">
          <mxGeometry width="50" height="50" relative="1" as="geometry">
            <mxPoint x="670" y="660" as="sourcePoint" />
            <mxPoint x="760" y="560" as="targetPoint" />
          </mxGeometry>
        </mxCell>
        <mxCell id="IqfXKbRryr13Aj2CBxFD-26" style="edgeStyle=orthogonalEdgeStyle;rounded=0;orthogonalLoop=1;jettySize=auto;html=1;" parent="WIyWlLk6GJQsqaUBKTNV-1" source="IqfXKbRryr13Aj2CBxFD-24" edge="1">
          <mxGeometry relative="1" as="geometry">
            <mxPoint x="880" y="680" as="targetPoint" />
            <Array as="points">
              <mxPoint x="760" y="640" />
              <mxPoint x="881" y="640" />
            </Array>
          </mxGeometry>
        </mxCell>
        <mxCell id="IqfXKbRryr13Aj2CBxFD-24" value="Suggest Alternative Ingredients" style="rounded=1;whiteSpace=wrap;html=1;" parent="WIyWlLk6GJQsqaUBKTNV-1" vertex="1">
          <mxGeometry x="660" y="560" width="200" height="30" as="geometry" />
        </mxCell>
        <mxCell id="IqfXKbRryr13Aj2CBxFD-50" style="edgeStyle=orthogonalEdgeStyle;rounded=0;orthogonalLoop=1;jettySize=auto;html=1;exitX=1;exitY=0;exitDx=0;exitDy=0;entryX=0.5;entryY=1;entryDx=0;entryDy=0;" parent="WIyWlLk6GJQsqaUBKTNV-1" source="IqfXKbRryr13Aj2CBxFD-27" target="IqfXKbRryr13Aj2CBxFD-3" edge="1">
          <mxGeometry relative="1" as="geometry">
            <mxPoint x="790" y="160" as="targetPoint" />
            <Array as="points">
              <mxPoint x="915" y="421" />
              <mxPoint x="800" y="421" />
              <mxPoint x="800" y="160" />
              <mxPoint x="740" y="160" />
            </Array>
          </mxGeometry>
        </mxCell>
        <mxCell id="IqfXKbRryr13Aj2CBxFD-51" value="Yes" style="edgeLabel;html=1;align=center;verticalAlign=middle;resizable=0;points=[];" parent="IqfXKbRryr13Aj2CBxFD-50" vertex="1" connectable="0">
          <mxGeometry x="-0.0701" y="-1" relative="1" as="geometry">
            <mxPoint as="offset" />
          </mxGeometry>
        </mxCell>
        <mxCell id="IqfXKbRryr13Aj2CBxFD-27" value="User Accepts Suggestion?" style="rhombus;whiteSpace=wrap;html=1;" parent="WIyWlLk6GJQsqaUBKTNV-1" vertex="1">
          <mxGeometry x="810" y="680" width="140" height="100" as="geometry" />
        </mxCell>
        <mxCell id="IqfXKbRryr13Aj2CBxFD-28" value="" style="endArrow=none;html=1;rounded=0;entryX=0.5;entryY=1;entryDx=0;entryDy=0;" parent="WIyWlLk6GJQsqaUBKTNV-1" target="IqfXKbRryr13Aj2CBxFD-27" edge="1">
          <mxGeometry width="50" height="50" relative="1" as="geometry">
            <mxPoint x="880" y="810" as="sourcePoint" />
            <mxPoint x="880" y="800" as="targetPoint" />
          </mxGeometry>
        </mxCell>
        <mxCell id="IqfXKbRryr13Aj2CBxFD-30" value="No" style="text;html=1;align=center;verticalAlign=middle;resizable=0;points=[];autosize=1;strokeColor=none;fillColor=none;" parent="WIyWlLk6GJQsqaUBKTNV-1" vertex="1">
          <mxGeometry x="860" y="810" width="40" height="30" as="geometry" />
        </mxCell>
        <mxCell id="IqfXKbRryr13Aj2CBxFD-32" value="" style="endArrow=classic;html=1;rounded=0;exitX=0.49;exitY=0.747;exitDx=0;exitDy=0;exitPerimeter=0;" parent="WIyWlLk6GJQsqaUBKTNV-1" source="IqfXKbRryr13Aj2CBxFD-30" edge="1">
          <mxGeometry width="50" height="50" relative="1" as="geometry">
            <mxPoint x="870" y="890" as="sourcePoint" />
            <mxPoint x="880" y="880" as="targetPoint" />
          </mxGeometry>
        </mxCell>
        <mxCell id="IqfXKbRryr13Aj2CBxFD-34" style="edgeStyle=orthogonalEdgeStyle;rounded=0;orthogonalLoop=1;jettySize=auto;html=1;" parent="WIyWlLk6GJQsqaUBKTNV-1" source="IqfXKbRryr13Aj2CBxFD-33" edge="1">
          <mxGeometry relative="1" as="geometry">
            <mxPoint x="720" y="1000" as="targetPoint" />
            <Array as="points">
              <mxPoint x="880" y="960" />
              <mxPoint x="721" y="960" />
            </Array>
          </mxGeometry>
        </mxCell>
        <mxCell id="IqfXKbRryr13Aj2CBxFD-33" value="Find partial matches" style="rounded=1;whiteSpace=wrap;html=1;" parent="WIyWlLk6GJQsqaUBKTNV-1" vertex="1">
          <mxGeometry x="820" y="880" width="120" height="30" as="geometry" />
        </mxCell>
        <mxCell id="IqfXKbRryr13Aj2CBxFD-36" style="edgeStyle=orthogonalEdgeStyle;rounded=0;orthogonalLoop=1;jettySize=auto;html=1;" parent="WIyWlLk6GJQsqaUBKTNV-1" source="IqfXKbRryr13Aj2CBxFD-35" edge="1">
          <mxGeometry relative="1" as="geometry">
            <mxPoint x="695" y="1080" as="targetPoint" />
          </mxGeometry>
        </mxCell>
        <mxCell id="IqfXKbRryr13Aj2CBxFD-35" value="Rank Recipes by Ingredient Match %" style="rounded=1;whiteSpace=wrap;html=1;" parent="WIyWlLk6GJQsqaUBKTNV-1" vertex="1">
          <mxGeometry x="580" y="1000" width="230" height="30" as="geometry" />
        </mxCell>
        <mxCell id="IqfXKbRryr13Aj2CBxFD-38" style="edgeStyle=orthogonalEdgeStyle;rounded=0;orthogonalLoop=1;jettySize=auto;html=1;" parent="WIyWlLk6GJQsqaUBKTNV-1" source="IqfXKbRryr13Aj2CBxFD-37" edge="1">
          <mxGeometry relative="1" as="geometry">
            <mxPoint x="700" y="1160" as="targetPoint" />
          </mxGeometry>
        </mxCell>
        <mxCell id="IqfXKbRryr13Aj2CBxFD-37" value="Apply user preferences or filters" style="rounded=1;whiteSpace=wrap;html=1;" parent="WIyWlLk6GJQsqaUBKTNV-1" vertex="1">
          <mxGeometry x="580" y="1080" width="240" height="30" as="geometry" />
        </mxCell>
        <mxCell id="IqfXKbRryr13Aj2CBxFD-41" style="edgeStyle=orthogonalEdgeStyle;rounded=0;orthogonalLoop=1;jettySize=auto;html=1;" parent="WIyWlLk6GJQsqaUBKTNV-1" source="IqfXKbRryr13Aj2CBxFD-39" edge="1">
          <mxGeometry relative="1" as="geometry">
            <mxPoint x="700" y="1260" as="targetPoint" />
          </mxGeometry>
        </mxCell>
        <mxCell id="IqfXKbRryr13Aj2CBxFD-39" value="Display Recipe Suggestion" style="rounded=1;whiteSpace=wrap;html=1;" parent="WIyWlLk6GJQsqaUBKTNV-1" vertex="1">
          <mxGeometry x="580" y="1160" width="240" height="30" as="geometry" />
        </mxCell>
        <mxCell id="IqfXKbRryr13Aj2CBxFD-43" style="edgeStyle=orthogonalEdgeStyle;rounded=0;orthogonalLoop=1;jettySize=auto;html=1;" parent="WIyWlLk6GJQsqaUBKTNV-1" source="IqfXKbRryr13Aj2CBxFD-42" edge="1">
          <mxGeometry relative="1" as="geometry">
            <mxPoint x="700" y="1440" as="targetPoint" />
          </mxGeometry>
        </mxCell>
        <mxCell id="IqfXKbRryr13Aj2CBxFD-54" style="edgeStyle=orthogonalEdgeStyle;rounded=0;orthogonalLoop=1;jettySize=auto;html=1;" parent="WIyWlLk6GJQsqaUBKTNV-1" source="IqfXKbRryr13Aj2CBxFD-42" edge="1">
          <mxGeometry relative="1" as="geometry">
            <mxPoint x="1120" y="1400" as="targetPoint" />
            <Array as="points">
              <mxPoint x="945" y="1320" />
              <mxPoint x="945" y="1321" />
              <mxPoint x="1120" y="1321" />
            </Array>
          </mxGeometry>
        </mxCell>
        <mxCell id="IqfXKbRryr13Aj2CBxFD-57" value="Yes" style="edgeLabel;html=1;align=center;verticalAlign=middle;resizable=0;points=[];" parent="IqfXKbRryr13Aj2CBxFD-54" vertex="1" connectable="0">
          <mxGeometry x="0.7657" y="-1" relative="1" as="geometry">
            <mxPoint as="offset" />
          </mxGeometry>
        </mxCell>
        <mxCell id="IqfXKbRryr13Aj2CBxFD-42" value="User Selects Recipe?" style="rhombus;whiteSpace=wrap;html=1;" parent="WIyWlLk6GJQsqaUBKTNV-1" vertex="1">
          <mxGeometry x="620" y="1260" width="160" height="120" as="geometry" />
        </mxCell>
        <mxCell id="IqfXKbRryr13Aj2CBxFD-45" style="edgeStyle=orthogonalEdgeStyle;rounded=0;orthogonalLoop=1;jettySize=auto;html=1;" parent="WIyWlLk6GJQsqaUBKTNV-1" source="IqfXKbRryr13Aj2CBxFD-44" edge="1">
          <mxGeometry relative="1" as="geometry">
            <mxPoint x="800" y="1630" as="targetPoint" />
            <Array as="points">
              <mxPoint x="700" y="1520" />
              <mxPoint x="801" y="1520" />
            </Array>
          </mxGeometry>
        </mxCell>
        <mxCell id="IqfXKbRryr13Aj2CBxFD-46" value="No" style="edgeLabel;html=1;align=center;verticalAlign=middle;resizable=0;points=[];" parent="IqfXKbRryr13Aj2CBxFD-45" vertex="1" connectable="0">
          <mxGeometry x="-0.3609" relative="1" as="geometry">
            <mxPoint as="offset" />
          </mxGeometry>
        </mxCell>
        <mxCell id="IqfXKbRryr13Aj2CBxFD-44" value="Offer more options" style="rounded=1;whiteSpace=wrap;html=1;" parent="WIyWlLk6GJQsqaUBKTNV-1" vertex="1">
          <mxGeometry x="640" y="1440" width="120" height="30" as="geometry" />
        </mxCell>
        <mxCell id="IqfXKbRryr13Aj2CBxFD-48" style="edgeStyle=orthogonalEdgeStyle;rounded=0;orthogonalLoop=1;jettySize=auto;html=1;" parent="WIyWlLk6GJQsqaUBKTNV-1" source="IqfXKbRryr13Aj2CBxFD-47" edge="1">
          <mxGeometry relative="1" as="geometry">
            <mxPoint x="1040" y="1840" as="targetPoint" />
            <Array as="points">
              <mxPoint x="800" y="1800" />
              <mxPoint x="981" y="1800" />
            </Array>
          </mxGeometry>
        </mxCell>
        <mxCell id="IqfXKbRryr13Aj2CBxFD-52" style="edgeStyle=orthogonalEdgeStyle;rounded=0;orthogonalLoop=1;jettySize=auto;html=1;exitX=1;exitY=0;exitDx=0;exitDy=0;entryX=1;entryY=0.5;entryDx=0;entryDy=0;entryPerimeter=0;" parent="WIyWlLk6GJQsqaUBKTNV-1" source="IqfXKbRryr13Aj2CBxFD-47" target="IqfXKbRryr13Aj2CBxFD-1" edge="1">
          <mxGeometry relative="1" as="geometry">
            <mxPoint x="980" y="60" as="targetPoint" />
            <Array as="points">
              <mxPoint x="970" y="1658" />
              <mxPoint x="970" y="75" />
            </Array>
          </mxGeometry>
        </mxCell>
        <mxCell id="IqfXKbRryr13Aj2CBxFD-53" value="Yes" style="edgeLabel;html=1;align=center;verticalAlign=middle;resizable=0;points=[];" parent="IqfXKbRryr13Aj2CBxFD-52" vertex="1" connectable="0">
          <mxGeometry x="0.2013" relative="1" as="geometry">
            <mxPoint as="offset" />
          </mxGeometry>
        </mxCell>
        <mxCell id="IqfXKbRryr13Aj2CBxFD-47" value="Continue Searching?" style="rhombus;whiteSpace=wrap;html=1;" parent="WIyWlLk6GJQsqaUBKTNV-1" vertex="1">
          <mxGeometry x="710" y="1630" width="180" height="110" as="geometry" />
        </mxCell>
        <mxCell id="IqfXKbRryr13Aj2CBxFD-49" value="End" style="ellipse;whiteSpace=wrap;html=1;" parent="WIyWlLk6GJQsqaUBKTNV-1" vertex="1">
          <mxGeometry x="1040" y="1820" width="70" height="40" as="geometry" />
        </mxCell>
        <mxCell id="IqfXKbRryr13Aj2CBxFD-59" style="edgeStyle=orthogonalEdgeStyle;rounded=0;orthogonalLoop=1;jettySize=auto;html=1;" parent="WIyWlLk6GJQsqaUBKTNV-1" source="IqfXKbRryr13Aj2CBxFD-58" edge="1">
          <mxGeometry relative="1" as="geometry">
            <mxPoint x="1120" y="1560" as="targetPoint" />
          </mxGeometry>
        </mxCell>
        <mxCell id="IqfXKbRryr13Aj2CBxFD-58" value="Show Recipe Details" style="rounded=1;whiteSpace=wrap;html=1;" parent="WIyWlLk6GJQsqaUBKTNV-1" vertex="1">
          <mxGeometry x="1060" y="1400" width="120" height="30" as="geometry" />
        </mxCell>
        <mxCell id="IqfXKbRryr13Aj2CBxFD-61" style="edgeStyle=orthogonalEdgeStyle;rounded=0;orthogonalLoop=1;jettySize=auto;html=1;entryX=1;entryY=0.5;entryDx=0;entryDy=0;" parent="WIyWlLk6GJQsqaUBKTNV-1" source="IqfXKbRryr13Aj2CBxFD-60" target="IqfXKbRryr13Aj2CBxFD-49" edge="1">
          <mxGeometry relative="1" as="geometry" />
        </mxCell>
        <mxCell id="IqfXKbRryr13Aj2CBxFD-60" value="Save to favorite option" style="rounded=1;whiteSpace=wrap;html=1;" parent="WIyWlLk6GJQsqaUBKTNV-1" vertex="1">
          <mxGeometry x="1060" y="1560" width="140" height="40" as="geometry" />
        </mxCell>
        <mxCell id="uUF2kvBjQQmW5dVreaaj-0" value="&lt;font style=&quot;font-size: 19px;&quot;&gt;MEAL SUGGESTION&lt;/font&gt;" style="text;html=1;align=center;verticalAlign=middle;resizable=0;points=[];autosize=1;strokeColor=none;fillColor=none;" vertex="1" parent="WIyWlLk6GJQsqaUBKTNV-1">
          <mxGeometry x="85" y="1553" width="210" height="40" as="geometry" />
        </mxCell>
      </root>
    </mxGraphModel>
  </diagram>
</mxfile>
